<?xml version="1.0" encoding="UTF-8"?>
<svg xmlns="http://www.w3.org/2000/svg" xmlns:xlink="http://www.w3.org/1999/xlink" version="1.1" id="Capa_1" x="0px" y="0px" viewBox="0 0 512.006 512.006" style="enable-background:new 0 0 512.006 512.006;" xml:space="preserve" width="512" height="512">
<g>
	<g>
		<path style="fill:#918291;" d="M396.439,233.525l-28.452-2.278c-1.489-0.12-2.737-1.169-3.107-2.617&#10;&#9;&#9;&#9;c-2.707-10.789-6.973-20.949-12.538-30.24c-0.769-1.289-0.629-2.917,0.34-4.056l18.522-21.739c2.627-3.087,2.448-7.673-0.42-10.54&#10;&#9;&#9;&#9;l-20.83-20.829c-2.867-2.867-7.453-3.047-10.55-0.42l-21.729,18.522c-1.139,0.959-2.777,1.109-4.056,0.34&#10;&#9;&#9;&#9;c-9.291-5.574-19.461-9.84-30.24-12.548c-1.449-0.36-2.507-1.609-2.627-3.107l-2.268-28.442c-0.33-4.046-3.706-7.163-7.752-7.163&#10;&#9;&#9;&#9;h-29.451c-4.056,0-7.433,3.117-7.762,7.163l-2.268,28.442c-0.12,1.499-1.179,2.747-2.627,3.107&#10;&#9;&#9;&#9;c-10.779,2.707-20.949,6.973-30.24,12.548c-1.279,0.769-2.917,0.619-4.056-0.34L172.6,140.806&#10;&#9;&#9;&#9;c-3.087-2.627-7.682-2.448-10.55,0.42l-20.83,20.829c-2.867,2.867-3.047,7.453-0.42,10.54l18.522,21.739&#10;&#9;&#9;&#9;c0.969,1.139,1.109,2.767,0.34,4.056c-5.565,9.291-9.83,19.451-12.538,30.24c-0.37,1.449-1.618,2.498-3.107,2.617l-28.452,2.278&#10;&#9;&#9;&#9;c-4.046,0.33-7.153,3.696-7.153,7.752v29.461c0,4.046,3.107,7.423,7.153,7.742l28.452,2.278c1.489,0.12,2.737,1.169,3.107,2.617&#10;&#9;&#9;&#9;c2.707,10.789,6.973,20.949,12.538,30.25c0.769,1.279,0.629,2.917-0.34,4.056l-18.522,21.729c-2.627,3.087-2.448,7.682,0.42,10.54&#10;&#9;&#9;&#9;l20.83,20.829c2.867,2.867,7.463,3.047,10.55,0.42l21.729-18.512c1.139-0.969,2.777-1.109,4.056-0.35&#10;&#9;&#9;&#9;c9.291,5.575,19.461,9.84,30.24,12.548c1.449,0.36,2.508,1.619,2.627,3.107l2.268,28.452c0.33,4.036,3.706,7.153,7.762,7.153&#10;&#9;&#9;&#9;h29.451c4.046,0,7.423-3.117,7.752-7.153l2.268-28.452c0.12-1.488,1.179-2.747,2.627-3.107&#10;&#9;&#9;&#9;c10.779-2.707,20.949-6.973,30.24-12.548c1.279-0.759,2.917-0.619,4.056,0.35l21.729,18.512c3.097,2.627,7.682,2.448,10.55-0.42&#10;&#9;&#9;&#9;l20.83-20.829c2.867-2.857,3.047-7.453,0.42-10.54l-18.522-21.729c-0.969-1.139-1.109-2.777-0.34-4.056&#10;&#9;&#9;&#9;c5.565-9.301,9.83-19.461,12.538-30.25c0.37-1.449,1.618-2.498,3.107-2.617l28.452-2.278c4.046-0.32,7.153-3.696,7.153-7.742&#10;&#9;&#9;&#9;v-29.461C403.592,237.221,400.486,233.855,396.439,233.525z M256.008,282.067c-14.396,0-26.064-11.669-26.064-26.064&#10;&#9;&#9;&#9;c0-14.396,11.669-26.064,26.064-26.064c14.386,0,26.054,11.669,26.054,26.064C282.062,270.399,270.394,282.067,256.008,282.067z"/>
		<g>
			<path style="fill:#7A6D79;" d="M330.585,348.254c-1.14-0.968-2.774-1.111-4.057-0.344c-2.87,1.72-5.823,3.315-8.851,4.779&#10;&#9;&#9;&#9;&#9;l21.733,18.516c3.088,2.625,7.68,2.447,10.542-0.422l3.255-3.255L330.585,348.254z"/>
			<path style="fill:#7A6D79;" d="M330.587,163.756c-1.14,0.968-2.774,1.111-4.057,0.344c-2.87-1.72-5.823-3.315-8.851-4.779&#10;&#9;&#9;&#9;&#9;l21.733-18.516c3.088-2.625,7.68-2.447,10.542,0.422l3.255,3.255L330.587,163.756z"/>
			<path style="fill:#7A6D79;" d="M159.336,349.953c-2.869-2.863-3.047-7.454-0.422-10.542l18.519-21.732&#10;&#9;&#9;&#9;&#9;c0.968-1.14,1.111-2.774,0.344-4.057c-5.571-9.295-9.836-19.457-12.544-30.243c-0.362-1.449-1.615-2.5-3.106-2.619l-28.45-2.275&#10;&#9;&#9;&#9;&#9;c-4.045-0.327-7.157-3.7-7.157-7.751v-29.453c0-4.057,3.112-7.43,7.157-7.757l28.45-2.275c1.491-0.119,2.744-1.17,3.106-2.619&#10;&#9;&#9;&#9;&#9;c2.708-10.786,6.973-20.948,12.544-30.243c0.766-1.283,0.624-2.916-0.344-4.057l-18.519-21.732&#10;&#9;&#9;&#9;&#9;c-2.625-3.088-2.447-7.68,0.422-10.542l17.575-17.575l-4.314-3.676c-3.088-2.625-7.68-2.447-10.542,0.422l-20.829,20.829&#10;&#9;&#9;&#9;&#9;c-2.869,2.863-3.047,7.454-0.422,10.542l18.519,21.732c0.968,1.14,1.111,2.774,0.344,4.057&#10;&#9;&#9;&#9;&#9;c-5.571,9.295-9.836,19.457-12.544,30.243c-0.362,1.449-1.615,2.5-3.106,2.619l-28.45,2.275c-4.045,0.327-7.157,3.7-7.157,7.757&#10;&#9;&#9;&#9;&#9;v29.453c0,4.051,3.112,7.424,7.157,7.751l28.45,2.275c1.491,0.119,2.744,1.17,3.106,2.619&#10;&#9;&#9;&#9;&#9;c2.708,10.786,6.973,20.948,12.544,30.243c0.766,1.283,0.624,2.916-0.344,4.057l-18.519,21.732&#10;&#9;&#9;&#9;&#9;c-2.625,3.088-2.447,7.68,0.422,10.542l20.829,20.829c2.863,2.869,7.454,3.047,10.542,0.422l4.314-3.676L159.336,349.953z"/>
			<path style="fill:#7A6D79;" d="M259.388,403.598h-18.109c-4.057,0-7.43-3.112-7.757-7.157l-2.275-28.45&#10;&#9;&#9;&#9;&#9;c-0.119-1.491-1.17-2.744-2.619-3.106c-10.786-2.708-20.948-6.973-30.243-12.544l5.203-4.431c1.14-0.968,2.774-1.111,4.057-0.345&#10;&#9;&#9;&#9;&#9;c9.295,5.571,28.307,14.611,39.093,17.319c1.449,0.362,2.5,1.615,2.619,3.106l2.275,28.45&#10;&#9;&#9;&#9;&#9;C251.958,400.485,255.332,403.598,259.388,403.598z"/>
			<path style="fill:#7A6D79;" d="M259.388,108.411h-18.109c-4.057,0-7.43,3.112-7.757,7.157l-2.275,28.45&#10;&#9;&#9;&#9;&#9;c-0.119,1.491-1.17,2.744-2.619,3.106c-10.786,2.708-20.948,6.973-30.243,12.544l5.203,4.431c1.14,0.968,2.774,1.111,4.057,0.344&#10;&#9;&#9;&#9;&#9;c9.295-5.571,28.307-14.611,39.093-17.319c1.449-0.362,2.5-1.615,2.619-3.106l2.275-28.45&#10;&#9;&#9;&#9;&#9;C251.958,111.524,255.332,108.411,259.388,108.411z"/>
		</g>
		<path style="fill:none;stroke:#000000;stroke-width:15;stroke-linecap:round;stroke-linejoin:round;stroke-miterlimit:10;" d="&#10;&#9;&#9;&#9;M331.003,364.033l8.41,7.17c3.09,2.63,7.67,2.45,10.54-0.42l20.83-20.83c2.86-2.86,3.05-7.45,0.42-10.54l-18.52-21.74&#10;&#9;&#9;&#9;c-0.97-1.13-1.11-2.77-0.34-4.05c5.57-9.29,9.83-19.46,12.54-30.24c0.36-1.45,1.62-2.5,3.11-2.62l28.45-2.28&#10;&#9;&#9;&#9;c4.04-0.32,7.15-3.7,7.15-7.75v-29.46c0-4.05-3.11-7.42-7.15-7.75l-28.45-2.27c-1.49-0.12-2.75-1.17-3.11-2.62&#10;&#9;&#9;&#9;c-2.71-10.79-6.97-20.95-12.54-30.25c-0.77-1.28-0.63-2.91,0.34-4.05l18.52-21.74c2.63-3.08,2.44-7.67-0.42-10.54l-20.83-20.83&#10;&#9;&#9;&#9;c-2.87-2.86-7.45-3.05-10.54-0.42l-21.74,18.52c-1.14,0.97-2.77,1.11-4.05,0.34c-9.29-5.57-19.46-9.83-30.25-12.54&#10;&#9;&#9;&#9;c-1.45-0.36-2.5-1.62-2.62-3.11l-2.27-28.45c-0.32-4.04-3.7-7.15-7.75-7.15h-29.46c-4.05,0-7.43,3.11-7.75,7.15l-2.27,28.45&#10;&#9;&#9;&#9;c-0.12,1.49-1.17,2.75-2.62,3.11c-10.79,2.71-20.96,6.97-30.25,12.54c-1.28,0.77-2.91,0.63-4.05-0.34l-21.74-18.52&#10;&#9;&#9;&#9;c-3.09-2.63-7.67-2.44-10.54,0.42l-20.83,20.83c-2.86,2.87-3.05,7.46-0.42,10.54l18.52,21.74c0.97,1.14,1.11,2.77,0.34,4.05&#10;&#9;&#9;&#9;c-5.57,9.3-9.83,19.46-12.54,30.25c-0.36,1.45-1.62,2.5-3.11,2.62l-28.45,2.27c-4.04,0.33-7.15,3.7-7.15,7.75v29.46&#10;&#9;&#9;&#9;c0,4.05,3.11,7.43,7.15,7.75l28.45,2.28c1.49,0.12,2.75,1.17,3.11,2.62c2.71,10.78,6.97,20.95,12.54,30.24&#10;&#9;&#9;&#9;c0.77,1.28,0.63,2.92-0.34,4.05l-18.52,21.74c-2.63,3.09-2.44,7.68,0.42,10.54l20.83,20.83c2.87,2.87,7.45,3.05,10.54,0.42&#10;&#9;&#9;&#9;l21.74-18.52c1.14-0.97,2.77-1.11,4.05-0.34c9.29,5.57,19.46,9.84,30.25,12.54c1.45,0.36,2.5,1.62,2.62,3.11l2.27,28.45&#10;&#9;&#9;&#9;c0.32,4.04,3.7,7.15,7.75,7.15h29.46c4.05,0,7.43-3.11,7.75-7.15l2.27-28.45c0.12-1.49,1.17-2.75,2.62-3.11&#10;&#9;&#9;&#9;c6.18-1.55,12.15-3.61,17.88-6.13"/>
		<path style="fill:#7A6D79;" d="M256.008,180.298c-41.819,0-75.715,33.897-75.715,75.705c0,41.809,33.897,75.705,75.715,75.705&#10;&#9;&#9;&#9;c41.809,0,75.705-33.897,75.705-75.705C331.713,214.194,297.817,180.298,256.008,180.298z M256.008,282.067&#10;&#9;&#9;&#9;c-14.396,0-26.064-11.669-26.064-26.064c0-14.396,11.669-26.064,26.064-26.064c14.386,0,26.054,11.669,26.054,26.064&#10;&#9;&#9;&#9;C282.062,270.399,270.394,282.067,256.008,282.067z"/>
		
			<circle style="fill:none;stroke:#000000;stroke-width:15;stroke-linecap:round;stroke-linejoin:round;stroke-miterlimit:10;" cx="256.003" cy="256.004" r="26.062"/>
		
			<circle style="fill:none;stroke:#000000;stroke-width:15;stroke-linecap:round;stroke-linejoin:round;stroke-miterlimit:10;" cx="256.003" cy="256.004" r="75.707"/>
	</g>
	<g>
		<path style="fill:#FFE177;" d="M216.074,449.996c-32.131-6.575-62.438-21.287-87.645-42.545&#10;&#9;&#9;&#9;c-19.677-16.594-35.963-36.944-47.866-59.598l14.567-3.217c8.392-1.853,11.63-12.097,5.828-18.437l-51.182-55.933&#10;&#9;&#9;&#9;c-5.801-6.339-16.289-4.023-18.88,4.171L8.036,346.722c-2.591,8.194,4.66,16.12,13.052,14.267l16.705-3.69&#10;&#9;&#9;&#9;c14.737,31.658,36.394,60.039,63.219,82.661c30.623,25.826,67.462,43.702,106.535,51.698c1.439,0.295,2.872,0.436,4.285,0.436&#10;&#9;&#9;&#9;c9.889,0,18.749-6.938,20.809-17.004C234.996,463.586,227.578,452.35,216.074,449.996z"/>
		<path style="fill:#8795DE;" d="M237.57,30.895L165.283,8.036c-8.194-2.591-16.121,4.66-14.267,13.052l3.689,16.705&#10;&#9;&#9;&#9;c-31.658,14.737-60.038,36.394-82.66,63.219c-25.825,30.623-43.702,67.462-51.698,106.535&#10;&#9;&#9;&#9;c-2.355,11.504,5.064,22.739,16.568,25.094c1.439,0.295,2.872,0.436,4.285,0.436c9.889,0,18.749-6.938,20.809-17.004&#10;&#9;&#9;&#9;c6.575-32.131,21.287-62.438,42.545-87.645c16.594-19.677,36.944-35.964,59.598-47.866l3.217,14.567&#10;&#9;&#9;&#9;c1.854,8.392,12.097,11.63,18.438,5.828l55.933-51.182C248.08,43.975,245.763,33.486,237.57,30.895z"/>
		<path style="fill:#97DA7B;" d="M490.918,151.017l-16.705,3.69c-14.737-31.658-36.394-60.039-63.219-82.661&#10;&#9;&#9;&#9;C380.37,46.22,343.531,28.343,304.458,20.348c-11.51-2.357-22.74,5.064-25.094,16.568c-2.355,11.504,5.064,22.74,16.568,25.094&#10;&#9;&#9;&#9;c32.131,6.575,62.438,21.287,87.645,42.545c19.677,16.594,35.963,36.944,47.866,59.598l-14.567,3.217&#10;&#9;&#9;&#9;c-8.392,1.853-11.63,12.097-5.828,18.437l51.182,55.933c5.801,6.339,16.289,4.023,18.88-4.171l22.859-72.286&#10;&#9;&#9;&#9;C506.561,157.09,499.309,149.163,490.918,151.017z"/>
		<path style="fill:#FE646F;" d="M475.09,279.364c-11.51-2.358-22.739,5.064-25.094,16.568&#10;&#9;&#9;&#9;c-6.575,32.131-21.287,62.438-42.545,87.645c-16.594,19.677-36.944,35.964-59.598,47.866l-3.217-14.567&#10;&#9;&#9;&#9;c-1.854-8.392-12.097-11.63-18.438-5.828l-55.933,51.182c-6.34,5.801-4.023,16.289,4.17,18.881l72.287,22.859&#10;&#9;&#9;&#9;c8.194,2.591,16.121-4.66,14.267-13.052l-3.689-16.705c31.658-14.737,60.038-36.394,82.66-63.22&#10;&#9;&#9;&#9;c25.825-30.623,43.702-67.462,51.698-106.535C494.013,292.954,486.595,281.719,475.09,279.364z"/>
	</g>
	<g>
		<path style="fill:none;stroke:#000000;stroke-width:15;stroke-linecap:round;stroke-linejoin:round;stroke-miterlimit:10;" d="&#10;&#9;&#9;&#9;M67.993,406.013c9.85,12.34,20.91,23.73,33.02,33.95c30.62,25.82,67.46,43.7,106.53,51.7c1.44,0.29,2.88,0.43,4.29,0.43&#10;&#9;&#9;&#9;c9.89,0,18.75-6.94,20.81-17c2.35-11.51-5.06-22.74-16.57-25.1c-32.13-6.57-62.44-21.28-87.64-42.54&#10;&#9;&#9;&#9;c-19.68-16.6-35.97-36.95-47.87-59.6l14.57-3.22c8.39-1.85,11.63-12.09,5.82-18.43l-51.18-55.94c-5.8-6.34-16.29-4.02-18.88,4.17&#10;&#9;&#9;&#9;l-22.86,72.29c-2.59,8.19,4.66,16.12,13.06,14.27l16.7-3.69c3.16,6.78,6.63,13.4,10.41,19.86"/>
		<path style="fill:none;stroke:#000000;stroke-width:15;stroke-linecap:round;stroke-linejoin:round;stroke-miterlimit:10;" d="&#10;&#9;&#9;&#9;M237.57,30.895L165.283,8.036c-8.194-2.591-16.121,4.66-14.267,13.052l3.689,16.705c-31.658,14.737-60.038,36.394-82.66,63.219&#10;&#9;&#9;&#9;c-25.825,30.623-43.702,67.462-51.698,106.535c-2.355,11.504,5.064,22.739,16.568,25.094c1.439,0.295,2.872,0.436,4.285,0.436&#10;&#9;&#9;&#9;c9.889,0,18.749-6.938,20.809-17.004c6.575-32.131,21.287-62.438,42.545-87.645c16.594-19.677,36.944-35.964,59.598-47.866&#10;&#9;&#9;&#9;l3.217,14.567c1.854,8.392,12.097,11.63,18.438,5.828l55.933-51.182C248.08,43.975,245.763,33.486,237.57,30.895z"/>
		<path style="fill:none;stroke:#000000;stroke-width:15;stroke-linecap:round;stroke-linejoin:round;stroke-miterlimit:10;" d="&#10;&#9;&#9;&#9;M490.313,208.493h-0.01l-9.19,29.08c-2.59,8.19-13.08,10.51-18.88,4.17l-51.18-55.94c-5.81-6.34-2.57-16.58,5.82-18.43l14.57-3.22&#10;&#9;&#9;&#9;c-11.9-22.65-28.19-43-47.87-59.6c-25.2-21.26-55.51-35.97-87.64-42.54c-11.51-2.36-18.92-13.59-16.57-25.1&#10;&#9;&#9;&#9;c2.35-11.5,13.59-18.92,25.1-16.57c39.07,8,75.91,25.88,106.53,51.7c26.83,22.62,48.48,51.01,63.22,82.66l16.7-3.69&#10;&#9;&#9;&#9;c8.4-1.85,15.65,6.08,13.06,14.27l-3.33,10.53"/>
		<path style="fill:none;stroke:#000000;stroke-width:15;stroke-linecap:round;stroke-linejoin:round;stroke-miterlimit:10;" d="&#10;&#9;&#9;&#9;M475.09,279.364c-11.51-2.358-22.739,5.064-25.094,16.568c-6.575,32.131-21.287,62.438-42.545,87.645&#10;&#9;&#9;&#9;c-16.594,19.677-36.944,35.964-59.598,47.866l-3.217-14.567c-1.854-8.392-12.097-11.63-18.438-5.828l-55.933,51.182&#10;&#9;&#9;&#9;c-6.34,5.801-4.023,16.289,4.17,18.881l72.287,22.859c8.194,2.591,16.121-4.66,14.267-13.052l-3.689-16.705&#10;&#9;&#9;&#9;c31.658-14.737,60.038-36.394,82.66-63.22c25.825-30.623,43.702-67.462,51.698-106.535&#10;&#9;&#9;&#9;C494.013,292.954,486.595,281.719,475.09,279.364z"/>
	</g>
</g>















</svg>
