<svg id="Layer_1" height="512" viewBox="0 0 64 64" width="512" xmlns="http://www.w3.org/2000/svg" data-name="Layer 1"><path d="m63.508 32.019q0 .678-.03 1.358c-.029.639-.069 1.289-.148 1.919-.078.806-.187 1.594-.324 2.381a31.514 31.514 0 1 1 -58.772-20.566c.088-.168.187-.345.295-.512a31.664 31.664 0 0 1 8.261-9.545c.5-.384 1.014-.758 1.536-1.1.276-.2.571-.384.857-.571.65-.413 1.319-.8 2-1.161a29.735 29.735 0 0 1 3.117-1.449 31.362 31.362 0 0 1 10.814-2.234c.295-.01.591-.01.886-.01q1.211 0 2.393.089l.9.089h.007a31.3 31.3 0 0 1 7.7 1.793c.8.295 1.576.629 2.344.984a31.829 31.829 0 0 1 6.675 4.211s0 .01.01 0c.827.689 1.6 1.407 2.353 2.165h.01a31.456 31.456 0 0 1 7.434 11.986c0 .019.01.029.01.049a30.589 30.589 0 0 1 1.526 7.154c.059.512.1 1.043.118 1.565.02.47.028.932.028 1.405z" fill="#0071bc"/><path d="m63.97 30.59c-.02-.53-.06-1.08-.12-1.59a31.114 31.114 0 0 0 -1.53-7.2l-.03-.12a32.145 32.145 0 0 0 -7.55-12.17l-.15-.14c-.3-.3-.6-.58-.9-.86-.07-.07-.14-.13-.21-.2-.32-.29-.64-.57-.97-.85v-.01a2.1 2.1 0 0 1 -.17-.14l-.19-.16-.16-.13-.01.01a32.34 32.34 0 0 0 -6.11-3.84 3.182 3.182 0 0 0 -.32-.16c-.89-.4-1.65-.72-2.38-.99a31.3 31.3 0 0 0 -7.83-1.82l-.91-.09c-.41-.03-.82-.06-1.24-.07-.29-.02-.59-.02-.88-.02-.41-.01-.81 0-1.21.01a31.754 31.754 0 0 0 -10.98 2.27l-.57.23a27.872 27.872 0 0 0 -2.6 1.24c-.75.4-1.42.79-2.04 1.18l-.19.12c-.18.12-.37.24-.54.37l-.13.08c-.47.32-.97.67-1.56 1.12a32.3 32.3 0 0 0 -7.56 8.31c-.28.45-.55.9-.81 1.36-.01.01-.01.02-.02.03l-.01.01a4.4 4.4 0 0 0 -.29.51 32 32 0 1 0 59.69 20.88c.14-.82.25-1.61.33-2.4.08-.68.12-1.37.15-1.96q.03-.69.03-1.38c0-.48-.01-.95-.03-1.43zm-1.13 4.66c-.08.78-.18 1.55-.32 2.34a31.022 31.022 0 1 1 -58.1-19.77c.08-.16.16-.32.25-.48.02-.04.04-.08.07-.13a3.959 3.959 0 0 1 .22-.37c.04-.06.07-.13.11-.19.12-.22.25-.44.39-.65.35-.61.74-1.2 1.15-1.78.2-.28.4-.55.6-.82.42-.57.86-1.11 1.33-1.65.25-.29.5-.57.77-.85a30.179 30.179 0 0 1 3.78-3.46c.25-.18.49-.37.75-.55.21-.15.42-.3.63-.44a1.213 1.213 0 0 1 .14-.1c.18-.13.37-.25.56-.37h.01a.417.417 0 0 1 .08-.06l.19-.12c.13-.08.26-.16.39-.25.48-.3 1-.59 1.57-.9.92-.48 1.82-.91 2.75-1.29.11-.04.22-.09.33-.13.06-.02.12-.05.18-.07.17-.07.35-.14.52-.2a1.723 1.723 0 0 1 .21-.07c.23-.09.46-.17.69-.25.32-.11.65-.22.97-.31.83-.25 1.68-.47 2.54-.65a1.843 1.843 0 0 1 .25-.05c.39-.08.78-.15 1.18-.21.42-.07.85-.13 1.27-.18a1.492 1.492 0 0 1 .21-.02c.35-.04.7-.08 1.05-.1.11-.02.21-.02.32-.03s.2-.01.3-.01a5.253 5.253 0 0 1 .56-.03c.13-.01.26-.02.39-.02h.22c.21-.01.42-.01.63-.01h.02c.74 0 1.48.03 2.18.08.06 0 .11.01.16.01l.61.06.3.03c.17.02.33.03.5.06l.29.03c.11.01.21.03.32.04.28.04.55.08.82.13a28.015 28.015 0 0 1 2.86.62c.24.06.47.12.7.19.15.04.31.09.47.14.54.17 1.08.35 1.62.55.15.06.31.12.47.18.13.05.27.11.41.16l.21.09c.19.08.39.17.59.26.1.04.2.08.3.13v.01c.1.04.21.09.32.14.04.02.09.04.13.06.15.07.31.15.46.22a31.615 31.615 0 0 1 5.3 3.32c.15.11.3.23.44.35a.3.3 0 0 1 .07.05v.1l.26.11c.04.03.08.07.12.1a1 1 0 0 1 .11.1c.31.25.61.52.9.79l.06.06c.36.32.7.66 1.05 1.01l.15.14a31.245 31.245 0 0 1 7.16 11.6l.01.05.02.06c.25.74.48 1.48.66 2.24.12.42.21.84.3 1.26v.01a28.745 28.745 0 0 1 .53 3.45c0 .03.01.06.01.09.06.5.1 1.02.12 1.53.01.24.02.48.02.71s.01.45.01.68c0 .44-.01.89-.03 1.33-.03.57-.07 1.24-.15 1.9z"/><path d="m34.215 38.8c-2.008 3.513-.984 1.555-1.221 4.143a2.007 2.007 0 0 1 -.9 1.485c-2.215 1.437-2.953 3.041-5.878 6.062-1.477 1.476-.492 3.444-.738 5.294s1.231 3.07.246 3.316c-5.74-.738-2.225-16.433-6.026-18.45-1.428-1.673-.827-2.884-.177-4.064a1.981 1.981 0 0 0 -1.152-2.825c-2.363-.767-6.006-2.1-7.473-4.064a2.175 2.175 0 0 0 -2.255-.738c-2.137.4-2.491-8.216-4.116-12.359a31.664 31.664 0 0 1 8.265-9.546c.5-.384 1.014-.758 1.536-1.1a17.054 17.054 0 0 1 6.548 1.426 1.985 1.985 0 0 1 .3 3.464c-2.136 1.417-4.578 2.952-1.349 4.222.985.492 1.97 2.46 2.836.866s1.1-4.31 1.6-3.936 1.477 3.562 3.328 2.46c1.782-1.083 2.993 2.814.6 2.716a2.006 2.006 0 0 0 -.483.019c-9.521 1.575 4.461 2.3-.492 4.389-3.407 2.067-3.446-2.952-4.766.846-.029.079-.069.177-.108.266-3.348 6.524-1.693 0-2.885 6.032-.591.158-.788-.088-.807-.472a2 2 0 0 0 -2.649-1.84c-2.266.875-4.4 2.652-2.181 3.639a1.423 1.423 0 0 0 1.278-.1c3.912-2.261.431 2.916 5.221 2.436 2.865-.955 5.115 1.756 8.492 4.206 2.091 2.334 5.781-.372 5.406 2.207z" fill="#85bf4b"/><path d="m34.41 37.52c-.45-.49-1.19-.45-2.04-.4a3.678 3.678 0 0 1 -3.2-.85l-.08-.07c-.73-.53-1.41-1.08-2.05-1.59-2.34-1.88-4.36-3.5-6.83-2.71-1.98.19-2.16-.63-2.38-1.58-.12-.52-.25-1.11-.79-1.34-.5-.22-1.16-.06-2.2.55a.948.948 0 0 1 -.83.07c-.3-.13-.65-.35-.64-.61.01-.5 1.08-1.46 2.8-2.12a1.324 1.324 0 0 1 1.22.12 1.655 1.655 0 0 1 .76 1.28.956.956 0 0 0 .39.81 1.178 1.178 0 0 0 1.03.12l.3-.08.06-.3c.22-1.1.34-1.78.41-2.2.02-.1.04-.19.05-.26.51-.19 1.16-1.07 2.39-3.47.04-.1.09-.21.12-.3a3.845 3.845 0 0 1 .51-1.11 2.612 2.612 0 0 1 .3.24 2.742 2.742 0 0 0 3.69.31c.65-.28 1.41-.68 1.39-1.37-.01-.86-1.18-1.29-2.54-1.8a13.027 13.027 0 0 1 -1.28-.53 14.089 14.089 0 0 1 2.82-.66 2.05 2.05 0 0 1 .37-.01 1.63 1.63 0 0 0 1.72-1.01 2.333 2.333 0 0 0 -.68-2.5 1.531 1.531 0 0 0 -1.87-.12.908.908 0 0 1 -.69.14c-.6-.16-1.13-1.1-1.49-1.72a2.867 2.867 0 0 0 -.6-.85.633.633 0 0 0 -.59-.1c-.45.15-.6.71-.91 1.82a11.878 11.878 0 0 1 -.83 2.37c-.14.27-.26.35-.3.36-.17.02-.62-.39-.88-.64a4.066 4.066 0 0 0 -1.04-.8c-1.08-.43-1.23-.79-1.25-.92-.06-.61 1.44-1.61 2.54-2.34l.15-.1a2.476 2.476 0 0 0 -.37-4.32 17.683 17.683 0 0 0 -5.23-1.38c-.28-.03-.55-.05-.82-.07-.23-.01-.46-.02-.69-.02h-.15l-.13.08c-.47.32-.97.67-1.56 1.12a32.3 32.3 0 0 0 -7.56 8.31c-.28.45-.55.9-.81 1.36-.01.01-.01.02-.02.03l-.01.01-.1.19.08.22c.05.12.09.24.14.37.07.21.15.44.21.67a47.714 47.714 0 0 1 1.08 4.74c.8 4.04 1.42 7.22 3.24 6.88a1.739 1.739 0 0 1 1.76.55c1.53 2.05 5.14 3.4 7.72 4.24a1.477 1.477 0 0 1 .94.87 1.444 1.444 0 0 1 -.07 1.25c-.61 1.11-1.45 2.64.24 4.62l.14.11c1.45.77 1.69 4.4 1.93 7.9.33 4.99.68 10.15 4.26 10.61l.1.01.09-.02a.955.955 0 0 0 .62-.45 1.628 1.628 0 0 0 -.15-1.32 3.982 3.982 0 0 1 -.35-1.96 8.8 8.8 0 0 0 -.03-1.99c-.1-1.18-.19-2.2.63-3.03 1.13-1.16 1.92-2.1 2.61-2.92a13.793 13.793 0 0 1 3.19-3.07 2.491 2.491 0 0 0 1.11-1.85 4.97 4.97 0 0 0 -.03-1.6c-.04-.2-.04-.2.79-1.65l.4-.7.06-.17a1.535 1.535 0 0 0 -.29-1.35zm-2.58 6.49a14.983 14.983 0 0 0 -3.4 3.26c-.69.82-1.46 1.74-2.56 2.87-1.14 1.14-1.02 2.56-.91 3.81a8.081 8.081 0 0 1 .03 1.77 4.853 4.853 0 0 0 .41 2.44c.05.13.11.29.15.41-2.56-.6-2.87-5.2-3.17-9.65-.26-3.89-.5-7.56-2.36-8.66-1.09-1.32-.73-2.22-.06-3.44a2.433 2.433 0 0 0 .11-2.09 2.488 2.488 0 0 0 -1.55-1.44c-1.41-.46-5.71-1.85-7.22-3.89a2.627 2.627 0 0 0 -2.75-.92c-.86.15-1.59-3.61-2.08-6.11a39.282 39.282 0 0 0 -1.4-5.72v-.01c.12-.22.25-.43.39-.64.35-.61.74-1.2 1.15-1.78.19-.28.39-.55.6-.82.42-.57.86-1.11 1.33-1.65.25-.29.5-.57.77-.85a30.179 30.179 0 0 1 3.78-3.46c.25-.19.5-.37.75-.55.21-.15.42-.3.63-.44a16.553 16.553 0 0 1 6.2 1.38 1.435 1.435 0 0 1 .88 1.23 1.456 1.456 0 0 1 -.65 1.37l-.15.1c-1.6 1.06-3.11 2.06-2.98 3.26q.12 1.05 1.83 1.71a4.321 4.321 0 0 1 .76.62c.52.5 1.06 1.01 1.71.9a1.429 1.429 0 0 0 1.02-.86 12.811 12.811 0 0 0 .91-2.58c.07-.24.15-.53.22-.77a1.48 1.48 0 0 0 .08.13c.46.81 1.09 1.92 2.09 2.18a1.836 1.836 0 0 0 1.44-.25.6.6 0 0 1 .74.03 1.372 1.372 0 0 1 .39 1.39c-.03.11-.15.42-.75.39a2.213 2.213 0 0 0 -.59.02c-3.14.52-3.76.94-3.82 1.54-.07.73.84 1.07 2.11 1.54a8.668 8.668 0 0 1 1.91.86s-.1.19-.87.52a1.817 1.817 0 0 1 -2.6-.19 1.312 1.312 0 0 0 -1.18-.48c-.47.13-.79.61-1.19 1.76-.03.07-.06.16-.09.22a12 12 0 0 1 -1.77 2.9l-.12-.05-.22.12c-.25.13-.27.26-.4 1-.06.33-.15.8-.28 1.5a2.639 2.639 0 0 0 -1.18-1.78 2.324 2.324 0 0 0 -2.11-.21c-1.56.6-3.4 1.76-3.43 3.02-.01.44.19 1.07 1.23 1.53a1.909 1.909 0 0 0 1.72-.12c1.03-.6 1.29-.51 1.31-.5.09.04.18.44.23.66.22.98.6 2.63 3.49 2.34l.1-.03c1.99-.66 3.74.75 5.96 2.52.64.52 1.32 1.06 2.05 1.59a4.592 4.592 0 0 0 3.95 1.14c.51-.03 1.13-.07 1.27.09.02.02.08.12.05.45l-.35.61c-.98 1.7-1.01 1.76-.91 2.32a3.99 3.99 0 0 1 .02 1.32 1.479 1.479 0 0 1 -.67 1.12z"/><path d="m31.114.539a2.2 2.2 0 0 0 -.591 1.093c-.492 2.1-4.431 2.834-3.446 3.208s.985 1.594-2.954.118c-2.708-1.014-3.554-1.8-3.82-2.185a31.362 31.362 0 0 1 10.811-2.234z" fill="#85bf4b"/><path d="m31.1.05a31.754 31.754 0 0 0 -10.98 2.27l-.57.23.29.41.06.09a1.708 1.708 0 0 0 .26.31 10.479 10.479 0 0 0 3.79 2.06 9.2 9.2 0 0 0 3.03.74 1.156 1.156 0 0 0 .87-.25.72.72 0 0 0 .26-.67 1.043 1.043 0 0 0 -.34-.56c.07-.04.15-.07.22-.11 1.06-.54 2.67-1.36 3.01-2.83a1.583 1.583 0 0 1 .35-.71.755.755 0 0 1 .11-.14l.36-.36.49-.49.03-.03zm-.92 1.03a4.557 4.557 0 0 0 -.14.44c-.24 1.02-1.6 1.71-2.5 2.17-.71.37-1.14.58-1.11 1.04a.528.528 0 0 0 .22.42 10.432 10.432 0 0 1 -2.35-.65 12.356 12.356 0 0 1 -3.11-1.54 1.723 1.723 0 0 1 .21-.07c.23-.09.46-.17.69-.25.32-.11.65-.22.97-.31.84-.26 1.68-.47 2.54-.65a1.843 1.843 0 0 1 .25-.05c.39-.08.78-.15 1.18-.21.42-.08.84-.13 1.27-.18a1.492 1.492 0 0 1 .21-.02c.35-.05.7-.08 1.05-.1.11-.02.21-.02.32-.03s.2-.01.3-.02z"/><path d="m45.342 3.482c-.207 1.84-.965 3.493-1.664 3.3-1.1-.3-1.861.148-4.677 1.968s.531 3.966-2.039 3.71-1.053-5.845-.088-7.518c.856-1.525-1.231-3-2.481-4.32l.9.089h.007a31.3 31.3 0 0 1 7.7 1.789c.8.293 1.574.627 2.342.982z" fill="#85bf4b"/><path d="m45.55 3.03c-.89-.4-1.65-.72-2.38-.99a31.3 31.3 0 0 0 -7.83-1.82l-.91-.09-1.3-.13.06.06.49.52.36.38a1.848 1.848 0 0 0 .14.14c.19.2.4.41.62.61 1.26 1.22 2.12 2.14 1.65 2.98-.69 1.2-2.06 5.23-1.05 7.21a1.874 1.874 0 0 0 1.51 1.05c.14.01.28.02.43.02a1.21 1.21 0 0 0 .95-.33 1.32 1.32 0 0 0 .11-1.24 1.745 1.745 0 0 1 .87-2.24c2.84-1.84 3.41-2.15 4.27-1.91a.966.966 0 0 0 .83-.15 4.727 4.727 0 0 0 1.35-2.89 2.891 2.891 0 0 0 .08-.5 1.01 1.01 0 0 0 .03-.17l.04-.35v-.01zm-1.74 3.27c-1.36-.37-2.29.23-5.08 2.03a2.711 2.711 0 0 0 -1.29 3.29 3.081 3.081 0 0 1 .07.35 1.923 1.923 0 0 1 -.5 0 .868.868 0 0 1 -.73-.52c-.71-1.37.25-4.94 1.02-6.27.83-1.47-.4-2.81-1.55-3.92l-.01-.01c.1.01.2.02.3.04s.21.03.32.04c.27.04.54.08.82.13a28.015 28.015 0 0 1 2.86.62c.23.06.47.12.7.19.15.04.31.09.47.14.54.17 1.08.35 1.62.55.15.06.31.12.47.18.13.05.27.11.41.16l.21.09c.19.08.38.16.59.26.1.04.2.08.3.13v.01a4.215 4.215 0 0 1 -1 2.51z"/><path d="m58.378 32.717a.1.1 0 0 0 .039.05 1.09 1.09 0 0 0 .9.433c5.75 0 1.526 2.7-.266 5.176a1 1 0 0 0 -.187.551c-.768 10.726-10.122 14.18-9.088.433-.325-5.934-12.573-.03-8.615-9.1.492-3.365 2.717-3.7 4.854-4.477a5.576 5.576 0 0 1 3.771-.039c3.673 1.289 10.713 1.23 4.421-1.014-2.461-.128-5.415-4.8-4.431-3.08s.325 2.745-.541 2.745c-2.9-6.347-.409-1.254-4.308.369a1.085 1.085 0 0 1 -.354.089c-2.885.276-2.664-1.018-1.935-2.219.738-1.23 2.215.246 1.723-.984.64-3.926 12.308-4.251 8.015-9.211a1.124 1.124 0 0 0 -1.881.364 7.5 7.5 0 0 0 -.443 2.47 1.112 1.112 0 0 1 -.709 1.063c-6.045 2.283-2.117-7.41 2.678-8.64 0 0 0 .01.01 0 .827.689 1.6 1.407 2.353 2.165h.01a31.456 31.456 0 0 1 7.434 11.986c0 .019.01.029.01.049a6.42 6.42 0 0 1 -.552 4.841 1.131 1.131 0 0 0 .217 1.447c2.3 1.948 1.4 4.448-1.723 2.873a1.114 1.114 0 0 0 -1.402 1.66z" fill="#85bf4b"/><path d="m62.86 29.01a4.733 4.733 0 0 0 -1.04-1.2.63.63 0 0 1 -.12-.81 5.166 5.166 0 0 0 .63-1.44v-.01a6.081 6.081 0 0 0 .2-1.31 9.4 9.4 0 0 0 -.21-2.41l-.03-.15a32.145 32.145 0 0 0 -7.55-12.17l-.15-.14c-.3-.3-.6-.58-.9-.86-.07-.07-.14-.13-.21-.2-.32-.29-.64-.57-.97-.85v-.01a2.1 2.1 0 0 1 -.17-.14l-.19-.16-.16-.13-.01.01-.21.22a1.723 1.723 0 0 0 -.21.07q-.27.09-.54.21a10.357 10.357 0 0 0 -5.1 6.41 2.685 2.685 0 0 0 .49 2.78c.66.58 1.7.6 3.1.07a1.591 1.591 0 0 0 1.03-1.53 7.037 7.037 0 0 1 .41-2.28.64.64 0 0 1 .49-.41.584.584 0 0 1 .56.19 2.347 2.347 0 0 1 .8 1.94c-.25 1.13-2.16 2-4 2.85-2.27 1.04-4.62 2.11-4.93 4.02l-.01.06a1.557 1.557 0 0 0 -1.65.75c-.58.95-.69 1.69-.34 2.24.39.63 1.29.86 2.74.72a1.529 1.529 0 0 0 .5-.12 4.6 4.6 0 0 0 2.63-2.9c.19.41.45.98.76 1.65l.41.91h.32a1.473 1.473 0 0 0 1.29-.73 1.874 1.874 0 0 0 .24-.9 5.985 5.985 0 0 0 3.34 1.96 10.928 10.928 0 0 1 1.88.83 15.8 15.8 0 0 1 -6.03-.76 6.108 6.108 0 0 0 -4.11.04c-.24.09-.49.17-.73.25-1.93.66-3.93 1.33-4.43 4.55-.89 2.06-1.03 3.56-.45 4.6.79 1.4 2.69 1.65 4.53 1.89 2.74.36 4.41.73 4.52 2.71-.35 4.63.44 7.84 2.23 9.05a2.8 2.8 0 0 0 1.6.5 3.343 3.343 0 0 0 1.49-.37c2.1-1.01 4.38-4.36 4.75-9.55a.56.56 0 0 1 .1-.29 18.961 18.961 0 0 1 1.43-1.66c1.16-1.25 2.16-2.32 1.75-3.26-.32-.72-1.31-1.03-3.32-1.03a.594.594 0 0 1 -.49-.23l-.08-.1v-.01a.571.571 0 0 1 .04-.71.6.6 0 0 1 .77-.17c2.31 1.17 3.22.19 3.46-.15a.01.01 0 0 0 .01-.01 2.192 2.192 0 0 0 -.16-2.32zm-.66 1.77c-.24.35-1.01.44-2.2-.17a1.615 1.615 0 0 0 -1.99.43 1.551 1.551 0 0 0 -.04 1.95l.08.14.05.03a1.588 1.588 0 0 0 1.21.53c2.16 0 2.4.4 2.42.44.15.35-.93 1.51-1.57 2.2a20.071 20.071 0 0 0 -1.51 1.75 1.439 1.439 0 0 0 -.28.81c-.34 4.77-2.42 7.87-4.2 8.73a2.053 2.053 0 0 1 -2.11-.06c-.69-.47-2.25-2.2-1.8-8.23-.16-3.01-3.05-3.39-5.37-3.7-1.67-.22-3.25-.43-3.8-1.39-.42-.75-.25-2.03.52-3.79l.03-.12c.4-2.68 1.89-3.19 3.79-3.83.25-.08.5-.17.75-.26a5.282 5.282 0 0 1 1.79-.32 5.151 5.151 0 0 1 1.65.28c1.95.69 7.08 1.5 7.55.17.25-.71-.53-1.3-2.8-2.11l-.14-.02c-1.47-.08-3.36-2.26-3.98-2.97-.31-.36-.57-.67-.95-.4s-.18.63.04 1.02a1.97 1.97 0 0 1 .33 1.76.523.523 0 0 1 -.16.17l-.12-.26c-1.15-2.53-1.27-2.8-1.78-2.76-.44.03-.56.43-.69.85a3.712 3.712 0 0 1 -2.2 2.66.532.532 0 0 1 -.2.05c-1.15.11-1.69-.06-1.82-.26-.04-.07-.15-.37.36-1.22.19-.32.41-.32.87-.25a.844.844 0 0 0 .88-.2.856.856 0 0 0 .06-.83c.32-1.32 2.36-2.25 4.34-3.16 2.16-.99 4.2-1.92 4.55-3.53a3.228 3.228 0 0 0 -1.02-2.8 1.554 1.554 0 0 0 -1.47-.51 1.65 1.65 0 0 0 -1.24 1.03 7.665 7.665 0 0 0 -.47 2.64.612.612 0 0 1 -.4.6c-1 .38-1.75.42-2.1.11-.33-.29-.39-.95-.19-1.81.55-2.27 2.72-5.19 5.04-5.93a1 1 0 0 1 .11.1c.31.25.61.52.9.79l.06.06c.35.32.7.66 1.05 1.01l.15.14a31.245 31.245 0 0 1 7.16 11.6l.01.05a5.914 5.914 0 0 1 -.48 4.48 1.613 1.613 0 0 0 .31 2.09c1 .84 1.3 1.79 1.02 2.22z"/></svg>